<svg width="25" height="24" viewBox="0 0 25 24" fill="none" xmlns="http://www.w3.org/2000/svg">
<path d="M11.1 4.15C11.1 4.34 10.94 4.5 10.75 4.5H9.62C7.46 4.5 5.7 6.26 5.7 8.42V17.65C5.7 17.84 5.54 18 5.35 18H4.65C3.46 18 2.5 17.04 2.5 15.85V4.15C2.5 2.96 3.46 2 4.65 2H8.95C10.14 2 11.1 2.96 11.1 4.15Z" fill="white"/>
<path d="M22.5004 4.15V15.85C22.5004 17.04 21.5404 18 20.3504 18H19.7204C19.5304 18 19.3704 17.84 19.3704 17.65V8.42C19.3704 6.26 17.6104 4.5 15.4504 4.5H14.2504C14.0604 4.5 13.9004 4.34 13.9004 4.15C13.9004 2.96 14.8604 2 16.0504 2H20.3504C21.5404 2 22.5004 2.96 22.5004 4.15Z" fill="white"/>
<path d="M15.4502 6H9.6202C8.2802 6 7.2002 7.08 7.2002 8.42V19.58C7.2002 20.92 8.2802 22 9.6202 22H11.2502C11.5302 22 11.7502 21.78 11.7502 21.5V19C11.7502 18.59 12.0902 18.25 12.5002 18.25C12.9102 18.25 13.2502 18.59 13.2502 19V21.5C13.2502 21.78 13.4702 22 13.7502 22H15.4602C16.7902 22 17.8702 20.92 17.8702 19.59V8.42C17.8702 7.08 16.7902 6 15.4502 6ZM14.5002 14.75H10.5002C10.0902 14.75 9.7502 14.41 9.7502 14C9.7502 13.59 10.0902 13.25 10.5002 13.25H14.5002C14.9102 13.25 15.2502 13.59 15.2502 14C15.2502 14.41 14.9102 14.75 14.5002 14.75ZM14.5002 11.75H10.5002C10.0902 11.75 9.7502 11.41 9.7502 11C9.7502 10.59 10.0902 10.25 10.5002 10.25H14.5002C14.9102 10.25 15.2502 10.59 15.2502 11C15.2502 11.41 14.9102 11.75 14.5002 11.75Z" fill="#ABC5FF"/>
</svg>
