<svg width="25" height="24" viewBox="0 0 25 24" fill="none" xmlns="http://www.w3.org/2000/svg">
<path d="M17.5 2H7.5C4.5 2 3.5 3.79 3.5 6V22H21.5V6C21.5 3.79 20.5 2 17.5 2ZM10.5 17.25H7.5C7.09 17.25 6.75 16.91 6.75 16.5C6.75 16.09 7.09 15.75 7.5 15.75H10.5C10.91 15.75 11.25 16.09 11.25 16.5C11.25 16.91 10.91 17.25 10.5 17.25ZM10.5 12.75H7.5C7.09 12.75 6.75 12.41 6.75 12C6.75 11.59 7.09 11.25 7.5 11.25H10.5C10.91 11.25 11.25 11.59 11.25 12C11.25 12.41 10.91 12.75 10.5 12.75ZM10.5 8.25H7.5C7.09 8.25 6.75 7.91 6.75 7.5C6.75 7.09 7.09 6.75 7.5 6.75H10.5C10.91 6.75 11.25 7.09 11.25 7.5C11.25 7.91 10.91 8.25 10.5 8.25ZM17.5 17.25H14.5C14.09 17.25 13.75 16.91 13.75 16.5C13.75 16.09 14.09 15.75 14.5 15.75H17.5C17.91 15.75 18.25 16.09 18.25 16.5C18.25 16.91 17.91 17.25 17.5 17.25ZM17.5 12.75H14.5C14.09 12.75 13.75 12.41 13.75 12C13.75 11.59 14.09 11.25 14.5 11.25H17.5C17.91 11.25 18.25 11.59 18.25 12C18.25 12.41 17.91 12.75 17.5 12.75ZM17.5 8.25H14.5C14.09 8.25 13.75 7.91 13.75 7.5C13.75 7.09 14.09 6.75 14.5 6.75H17.5C17.91 6.75 18.25 7.09 18.25 7.5C18.25 7.91 17.91 8.25 17.5 8.25Z" fill="white"/>
<path d="M22.5 21.25H2.5C2.09 21.25 1.75 21.59 1.75 22C1.75 22.41 2.09 22.75 2.5 22.75H22.5C22.91 22.75 23.25 22.41 23.25 22C23.25 21.59 22.91 21.25 22.5 21.25Z" fill="#ABC5FF"/>
</svg>
