<svg width="593" height="574" viewBox="0 0 593 574" fill="none" xmlns="http://www.w3.org/2000/svg">
<g filter="url(#filter0_d_17_467)">
<path d="M401.295 130.313C461.751 165.215 456.15 238.705 397.396 268.47C336.94 303.371 238.921 303.371 178.465 268.47C116.734 234.749 114.034 166.006 174.49 131.105C234.946 96.2033 340.839 95.412 401.295 130.313Z" fill="#1864F8"/>
</g>
<path d="M397.396 127.312C457.852 162.214 457.852 218.8 397.396 253.701C336.94 288.602 238.921 288.602 178.465 253.701C118.009 218.8 118.009 162.214 178.465 127.312C238.921 92.411 336.94 92.411 397.396 127.312Z" fill="#3383FF"/>
<path fill-rule="evenodd" clip-rule="evenodd" d="M395.304 252.493C454.604 218.259 454.604 162.754 395.304 128.52C336.003 94.2861 239.858 94.2861 180.558 128.52C121.257 162.754 121.257 218.259 180.558 252.493C239.858 286.727 336.003 286.727 395.304 252.493ZM397.396 253.701C457.852 218.8 457.852 162.214 397.396 127.312C336.94 92.411 238.921 92.411 178.465 127.312C118.009 162.214 118.009 218.8 178.465 253.701C238.921 288.602 336.94 288.602 397.396 253.701Z" fill="url(#paint0_linear_17_467)"/>
<g filter="url(#filter1_d_17_467)">
<path d="M254.107 205.435C159.243 161.822 191.378 99.3808 219.303 73.6116C246.818 75.7676 315.953 80.8188 372.378 83.7756C442.91 87.4716 445.99 198.659 413.958 211.287C381.926 223.915 387.162 227.611 254.107 205.435Z" fill="#337EFF"/>
</g>
<g filter="url(#filter2_b_17_467)">
<path d="M456.848 66.1953C517.304 101.097 511.703 174.587 452.948 204.352C392.492 239.253 294.474 239.253 234.018 204.352C172.287 170.631 169.587 101.888 230.043 66.9867C290.499 32.0854 396.392 31.2941 456.848 66.1953Z" fill="white" fill-opacity="0.5"/>
<path fill-rule="evenodd" clip-rule="evenodd" d="M452.052 202.697L452.098 202.674C480.924 188.071 496.568 162.835 497.723 137.115C498.876 111.422 485.581 84.9555 455.907 67.8245C426.054 50.5903 384.824 42.0994 343.454 42.2962C302.086 42.493 260.847 51.3757 230.984 68.6159C201.245 85.7841 187.283 111.101 188.091 136.051C188.899 161.021 204.517 186.093 234.92 202.701L234.939 202.712L234.958 202.723C264.833 219.97 304.107 228.647 343.483 228.647C382.859 228.647 422.133 219.97 452.008 202.723L452.052 202.697ZM452.948 204.352C392.492 239.253 294.474 239.253 234.018 204.352C172.287 170.631 169.587 101.888 230.043 66.9867C290.499 32.0854 396.392 31.2941 456.848 66.1954C517.304 101.097 511.703 174.587 452.948 204.352Z" fill="url(#paint1_linear_17_467)"/>
</g>
<g filter="url(#filter3_b_17_467)">
<path d="M452.95 63.1944C513.406 98.0956 513.406 154.682 452.95 189.583C392.494 224.484 294.475 224.484 234.019 189.583C173.563 154.682 173.563 98.0956 234.019 63.1944C294.475 28.2931 392.494 28.2931 452.95 63.1944Z" fill="white" fill-opacity="0.5"/>
<path fill-rule="evenodd" clip-rule="evenodd" d="M450.857 188.375C510.158 154.141 510.158 98.6365 450.857 64.4023C391.557 30.1682 295.412 30.1682 236.112 64.4024C176.811 98.6365 176.811 154.141 236.112 188.375C295.412 222.609 391.557 222.609 450.857 188.375ZM452.95 189.583C513.406 154.682 513.406 98.0956 452.95 63.1944C392.494 28.2931 294.475 28.2931 234.019 63.1944C173.563 98.0956 173.563 154.682 234.019 189.583C294.475 224.484 392.494 224.484 452.95 189.583Z" fill="url(#paint2_linear_17_467)"/>
</g>
<g filter="url(#filter4_i_17_467)">
<path fill-rule="evenodd" clip-rule="evenodd" d="M306.454 114.772C303.953 116.216 303.323 119.305 307.316 121.61C310.759 123.597 312.381 123.7 312.519 123.708C312.521 123.708 312.523 123.708 312.525 123.709C312.831 123.73 313.974 123.765 317.289 122.858L360.961 110.687C360.988 110.68 361.015 110.672 361.042 110.665C366.399 109.196 373.447 107.769 381.623 108.35C390.004 108.945 397.202 111.465 403.576 115.145C417.825 123.371 419.122 136.877 404.438 145.354L384.195 157.04C368.28 166.228 342.734 165.552 327.129 156.543C321.539 153.316 321.539 148.084 327.129 144.858C332.718 141.631 341.781 141.631 347.37 144.858C352.654 147.908 360.056 147.605 363.953 145.355L384.196 133.669C386.74 132.2 387.39 129.172 383.335 126.831C379.953 124.879 378.32 124.765 378.134 124.753L378.127 124.752C377.772 124.727 376.59 124.699 373.361 125.582L329.69 137.753C329.663 137.761 329.636 137.768 329.608 137.775C324.338 139.221 317.305 140.685 309.107 140.116C300.687 139.532 293.477 136.991 287.074 133.295C272.977 125.157 271.486 111.587 286.213 103.086L306.455 91.3998C322.37 82.2122 347.916 82.8881 363.522 91.897C369.111 95.1239 369.111 100.356 363.522 103.583C357.932 106.809 348.87 106.809 343.28 103.583C337.997 100.532 330.594 100.835 326.697 103.085L306.454 114.772Z" fill="#337EFF"/>
<path fill-rule="evenodd" clip-rule="evenodd" d="M286.752 90.4675C292.341 87.2406 301.404 87.2406 306.993 90.4675L403.9 146.412C409.489 149.639 409.489 154.87 403.9 158.097C398.31 161.324 389.248 161.324 383.658 158.097L286.752 102.153C281.162 98.9261 281.162 93.6944 286.752 90.4675Z" fill="#337EFF"/>
</g>
<defs>
<filter id="filter0_d_17_467" x="0.902023" y="104.53" width="572.939" height="481.989" filterUnits="userSpaceOnUse" color-interpolation-filters="sRGB">
<feFlood flood-opacity="0" result="BackgroundImageFix"/>
<feColorMatrix in="SourceAlpha" type="matrix" values="0 0 0 0 0 0 0 0 0 0 0 0 0 0 0 0 0 0 127 0" result="hardAlpha"/>
<feOffset dy="162.152"/>
<feGaussianBlur stdDeviation="64.8607"/>
<feComposite in2="hardAlpha" operator="out"/>
<feColorMatrix type="matrix" values="0 0 0 0 0.343982 0 0 0 0 0.567028 0 0 0 0 1 0 0 0 0.5 0"/>
<feBlend mode="normal" in2="BackgroundImageFix" result="effect1_dropShadow_17_467"/>
<feBlend mode="normal" in="SourceGraphic" in2="effect1_dropShadow_17_467" result="shape"/>
</filter>
<filter id="filter1_d_17_467" x="31.581" y="16.8" width="560.988" height="465.959" filterUnits="userSpaceOnUse" color-interpolation-filters="sRGB">
<feFlood flood-opacity="0" result="BackgroundImageFix"/>
<feColorMatrix in="SourceAlpha" type="matrix" values="0 0 0 0 0 0 0 0 0 0 0 0 0 0 0 0 0 0 127 0" result="hardAlpha"/>
<feOffset dy="102.261"/>
<feGaussianBlur stdDeviation="79.5364"/>
<feComposite in2="hardAlpha" operator="out"/>
<feColorMatrix type="matrix" values="0 0 0 0 0.188235 0 0 0 0 0.220706 0 0 0 0 1 0 0 0 0.7 0"/>
<feBlend mode="normal" in2="BackgroundImageFix" result="effect1_dropShadow_17_467"/>
<feBlend mode="normal" in="SourceGraphic" in2="effect1_dropShadow_17_467" result="shape"/>
</filter>
<filter id="filter2_b_17_467" x="56.4548" y="-89.3096" width="572.939" height="449.559" filterUnits="userSpaceOnUse" color-interpolation-filters="sRGB">
<feFlood flood-opacity="0" result="BackgroundImageFix"/>
<feGaussianBlur in="BackgroundImageFix" stdDeviation="64.8607"/>
<feComposite in2="SourceAlpha" operator="in" result="effect1_backgroundBlur_17_467"/>
<feBlend mode="normal" in="SourceGraphic" in2="effect1_backgroundBlur_17_467" result="shape"/>
</filter>
<filter id="filter3_b_17_467" x="58.9559" y="-92.7029" width="569.057" height="438.183" filterUnits="userSpaceOnUse" color-interpolation-filters="sRGB">
<feFlood flood-opacity="0" result="BackgroundImageFix"/>
<feGaussianBlur in="BackgroundImageFix" stdDeviation="64.8607"/>
<feComposite in2="SourceAlpha" operator="in" result="effect1_backgroundBlur_17_467"/>
<feBlend mode="normal" in="SourceGraphic" in2="effect1_backgroundBlur_17_467" result="shape"/>
</filter>
<filter id="filter4_i_17_467" x="275.817" y="84.8176" width="139.055" height="82.5923" filterUnits="userSpaceOnUse" color-interpolation-filters="sRGB">
<feFlood flood-opacity="0" result="BackgroundImageFix"/>
<feBlend mode="normal" in="SourceGraphic" in2="BackgroundImageFix" result="shape"/>
<feColorMatrix in="SourceAlpha" type="matrix" values="0 0 0 0 0 0 0 0 0 0 0 0 0 0 0 0 0 0 127 0" result="hardAlpha"/>
<feOffset dy="8.80474"/>
<feGaussianBlur stdDeviation="1.89372"/>
<feComposite in2="hardAlpha" operator="arithmetic" k2="-1" k3="1"/>
<feColorMatrix type="matrix" values="0 0 0 0 1 0 0 0 0 1 0 0 0 0 1 0 0 0 1 0"/>
<feBlend mode="normal" in2="shape" result="effect1_innerShadow_17_467"/>
</filter>
<linearGradient id="paint0_linear_17_467" x1="177.021" y1="230.965" x2="362.9" y2="220.646" gradientUnits="userSpaceOnUse">
<stop stop-color="white" stop-opacity="0.43"/>
<stop offset="0.846595" stop-color="white" stop-opacity="0.44"/>
<stop offset="1" stop-color="white" stop-opacity="0"/>
</linearGradient>
<linearGradient id="paint1_linear_17_467" x1="213.34" y1="117.743" x2="289.61" y2="235.7" gradientUnits="userSpaceOnUse">
<stop stop-color="white" stop-opacity="0"/>
<stop offset="0.846595" stop-color="white" stop-opacity="0.06"/>
<stop offset="1" stop-color="white" stop-opacity="0.23"/>
</linearGradient>
<linearGradient id="paint2_linear_17_467" x1="232.575" y1="166.847" x2="418.454" y2="156.528" gradientUnits="userSpaceOnUse">
<stop stop-color="white" stop-opacity="0.43"/>
<stop offset="0.846595" stop-color="white" stop-opacity="0.44"/>
<stop offset="1" stop-color="white" stop-opacity="0"/>
</linearGradient>
</defs>
</svg>
