<svg width="15" height="15" viewBox="0 0 15 15" fill="none" xmlns="http://www.w3.org/2000/svg">
<path d="M2.16666 9.36665V5.74998C2.16666 3.70831 3.33332 2.83331 5.08332 2.83331H10.9167C12.6667 2.83331 13.8333 3.70831 13.8333 5.74998V9.24998C13.8333 11.2916 12.6667 12.1666 10.9167 12.1666H5.95832" stroke="#5C5C5C" stroke-miterlimit="10" stroke-linecap="round" stroke-linejoin="round"/>
<path d="M8.00002 8.95835C8.80544 8.95835 9.45835 8.30544 9.45835 7.50002C9.45835 6.69461 8.80544 6.04169 8.00002 6.04169C7.19461 6.04169 6.54169 6.69461 6.54169 7.50002C6.54169 8.30544 7.19461 8.95835 8.00002 8.95835Z" stroke="#5C5C5C" stroke-miterlimit="10" stroke-linecap="round" stroke-linejoin="round"/>
<path d="M11.7917 6.04169V8.95835" stroke="#5C5C5C" stroke-miterlimit="10" stroke-linecap="round" stroke-linejoin="round"/>
<path d="M6.25001 11C6.25001 11.4375 6.1275 11.8517 5.91167 12.2017C5.50917 12.8784 4.76834 13.3334 3.91668 13.3334C3.06501 13.3334 2.32419 12.8784 1.92169 12.2017C1.70585 11.8517 1.58334 11.4375 1.58334 11C1.58334 9.71085 2.62751 8.66669 3.91668 8.66669C5.20584 8.66669 6.25001 9.71085 6.25001 11Z" stroke="#5C5C5C" stroke-width="1.5" stroke-miterlimit="10" stroke-linecap="round" stroke-linejoin="round"/>
<path d="M5.52083 9.39581L2.3125 12.6041" stroke="#5C5C5C" stroke-width="1.5" stroke-miterlimit="10" stroke-linecap="round" stroke-linejoin="round"/>
</svg>
