<svg width="33" height="32" viewBox="0 0 33 32" fill="none" xmlns="http://www.w3.org/2000/svg">
<path opacity="0.34" d="M13.48 25.3333L15.72 23.44C16.0534 23.16 16.6134 23.16 16.96 23.44L19.1867 25.3333C19.7067 25.6 20.3467 25.3333 20.5334 24.7733L20.96 23.4933C21.0667 23.1867 20.96 22.7333 20.7334 22.5067L18.5467 20.3067C18.3867 20.1467 18.2667 19.84 18.2667 19.6267V17.16C18.2667 16.6 18.68 16.3333 19.2 16.5467L23.6667 18.4667C24.4 18.7867 25.0134 18.3867 25.0134 17.5867V16.3467C25.0134 15.7067 24.5334 14.96 23.9334 14.7067L18.68 12.44C18.4534 12.3467 18.28 12.0667 18.28 11.8267V9.06667C18.28 8.16001 17.6134 7.09334 16.8134 6.68001C16.52 6.53334 16.1867 6.53334 15.8934 6.68001C15.08 7.08001 14.4267 8.16001 14.4267 9.06667V11.8267C14.4267 12.0667 14.24 12.3467 14.0267 12.44L8.77336 14.7067C8.18669 14.96 7.69336 15.7067 7.69336 16.3467V17.5867C7.69336 18.3867 8.29336 18.7867 9.04003 18.4667L13.5067 16.5467C14.0134 16.32 14.44 16.6 14.44 17.16V19.6267C14.44 19.8533 14.3067 20.16 14.16 20.3067L11.9334 22.4933C11.7067 22.72 11.6 23.1733 11.7067 23.48L12.1334 24.76C12.32 25.3333 12.9467 25.6 13.48 25.3333Z" stroke="#0067E0" stroke-width="1.5" stroke-linecap="round" stroke-linejoin="round"/>
<path d="M12.3333 29.3333H20.3333C27 29.3333 29.6667 26.6667 29.6667 20V12C29.6667 5.33332 27 2.66666 20.3333 2.66666H12.3333C5.66667 2.66666 3 5.33332 3 12V20C3 26.6667 5.66667 29.3333 12.3333 29.3333Z" stroke="#0067E0" stroke-width="1.5" stroke-linecap="round" stroke-linejoin="round"/>
</svg>
