<svg width="48" height="48" viewBox="0 0 48 48" fill="none" xmlns="http://www.w3.org/2000/svg">
<path d="M20.22 22.3H14.92C13.66 22.3 12.64 23.32 12.64 24.58V34.8199H20.22V22.3V22.3Z" stroke="#568BFF" stroke-width="2" stroke-miterlimit="10" stroke-linecap="round" stroke-linejoin="round"/>
<path d="M25.5225 13.2H22.4825C21.2225 13.2 20.2025 14.22 20.2025 15.48V34.8H27.7825V15.48C27.7825 14.22 26.7825 13.2 25.5225 13.2Z" stroke="#568BFF" stroke-width="2" stroke-miterlimit="10" stroke-linecap="round" stroke-linejoin="round"/>
<path d="M33.0963 25.7H27.7963V34.8H35.3763V27.98C35.3563 26.72 34.3363 25.7 33.0963 25.7Z" stroke="#568BFF" stroke-width="2" stroke-miterlimit="10" stroke-linecap="round" stroke-linejoin="round"/>
<path d="M18 44H30C40 44 44 40 44 30V18C44 8 40 4 30 4H18C8 4 4 8 4 18V30C4 40 8 44 18 44Z" stroke="#568BFF" stroke-width="2" stroke-linecap="round" stroke-linejoin="round"/>
</svg>
