<svg width="33" height="32" viewBox="0 0 33 32" fill="none" xmlns="http://www.w3.org/2000/svg">
<path d="M3.33301 29.3333H29.9997" stroke="#9A1AFF" stroke-width="1.5" stroke-miterlimit="10" stroke-linecap="round" stroke-linejoin="round"/>
<path d="M4.59961 29.3334L4.66628 13.2933C4.66628 12.48 5.05294 11.7067 5.69294 11.2001L15.0263 3.93338C15.9863 3.18672 17.3329 3.18672 18.3063 3.93338L27.6396 11.1867C28.2929 11.6934 28.6663 12.4667 28.6663 13.2933V29.3334" stroke="#9A1AFF" stroke-width="1.5" stroke-miterlimit="10" stroke-linejoin="round"/>
<path opacity="0.4" d="M17.9997 22.6667H15.333C14.2263 22.6667 13.333 23.56 13.333 24.6667V29.3333H19.9997V24.6667C19.9997 23.56 19.1063 22.6667 17.9997 22.6667Z" stroke="#9A1AFF" stroke-width="1.5" stroke-miterlimit="10" stroke-linejoin="round"/>
<path opacity="0.4" d="M13.333 18.3333H10.6663C9.93301 18.3333 9.33301 17.7333 9.33301 17V15C9.33301 14.2667 9.93301 13.6667 10.6663 13.6667H13.333C14.0663 13.6667 14.6663 14.2667 14.6663 15V17C14.6663 17.7333 14.0663 18.3333 13.333 18.3333Z" stroke="#9A1AFF" stroke-width="1.5" stroke-miterlimit="10" stroke-linejoin="round"/>
<path opacity="0.4" d="M22.6665 18.3333H19.9998C19.2665 18.3333 18.6665 17.7333 18.6665 17V15C18.6665 14.2667 19.2665 13.6667 19.9998 13.6667H22.6665C23.3998 13.6667 23.9998 14.2667 23.9998 15V17C23.9998 17.7333 23.3998 18.3333 22.6665 18.3333Z" stroke="#9A1AFF" stroke-width="1.5" stroke-miterlimit="10" stroke-linejoin="round"/>
<path d="M25.9999 9.33334L25.9599 5.33334H20.0933" stroke="#9A1AFF" stroke-width="1.5" stroke-miterlimit="10" stroke-linecap="round" stroke-linejoin="round"/>
</svg>
