<svg width="32" height="32" viewBox="0 0 32 32" fill="none" xmlns="http://www.w3.org/2000/svg">
<path d="M25.7331 10.56V17.4267C25.7331 21.5333 23.3865 23.2933 19.8665 23.2933H8.14644C7.54644 23.2933 6.97311 23.24 6.43978 23.12C6.10645 23.0667 5.78646 22.9734 5.49312 22.8667C3.49312 22.12 2.27979 20.3867 2.27979 17.4267V10.56C2.27979 6.45331 4.62644 4.69336 8.14644 4.69336H19.8665C22.8531 4.69336 24.9998 5.96002 25.5731 8.85335C25.6665 9.38669 25.7331 9.93331 25.7331 10.56Z" stroke="#00B051" stroke-width="1.5" stroke-miterlimit="10" stroke-linecap="round" stroke-linejoin="round"/>
<path opacity="0.4" d="M29.7333 14.56V21.4267C29.7333 25.5334 27.3866 27.2933 23.8666 27.2933H12.1466C11.1599 27.2933 10.2666 27.16 9.49329 26.8667C7.90662 26.28 6.82661 25.0667 6.43994 23.12C6.97327 23.24 7.54661 23.2933 8.14661 23.2933H19.8666C23.3866 23.2933 25.7333 21.5334 25.7333 17.4267V10.56C25.7333 9.93332 25.68 9.37336 25.5733 8.85336C28.1066 9.3867 29.7333 11.1733 29.7333 14.56Z" stroke="#00B051" stroke-width="1.5" stroke-miterlimit="10" stroke-linecap="round" stroke-linejoin="round"/>
<path d="M14 17.52C15.944 17.52 17.52 15.944 17.52 14C17.52 12.056 15.944 10.48 14 10.48C12.056 10.48 10.48 12.056 10.48 14C10.48 15.944 12.056 17.52 14 17.52Z" stroke="#00B051" stroke-width="1.5" stroke-miterlimit="10" stroke-linecap="round" stroke-linejoin="round"/>
<path opacity="0.4" d="M6.37354 11.0667V16.9333" stroke="#00B051" stroke-width="1.5" stroke-miterlimit="10" stroke-linecap="round" stroke-linejoin="round"/>
<path opacity="0.4" d="M21.6265 11.0667V16.9333" stroke="#00B051" stroke-width="1.5" stroke-miterlimit="10" stroke-linecap="round" stroke-linejoin="round"/>
</svg>
