<svg width="32" height="32" viewBox="0 0 32 32" fill="none" xmlns="http://www.w3.org/2000/svg">
<path d="M25.2135 19.59C25.2135 21.31 26.6268 22.71 28.3468 22.71C28.3468 27.71 27.0935 28.9633 22.0935 28.9633H9.58683C4.58683 28.9633 3.3335 27.71 3.3335 22.71V22.0967C5.0535 22.0967 6.46683 20.6833 6.46683 18.9633C6.46683 17.2433 5.0535 15.83 3.3335 15.83V15.2167C3.34683 10.2167 4.58683 8.96332 9.58683 8.96332H22.0802C27.0802 8.96332 28.3335 10.2167 28.3335 15.2167V16.47C26.6135 16.47 25.2135 17.8567 25.2135 19.59Z" stroke="#FF1A51" stroke-width="1.5" stroke-linecap="round" stroke-linejoin="round"/>
<path opacity="0.4" d="M21.6146 8.96332H9.49463L13.4013 5.05666C16.588 1.86999 18.188 1.86999 21.3746 5.05666L22.1746 5.85666C21.3346 6.69666 21.1346 7.93666 21.6146 8.96332Z" stroke="#FF1A51" stroke-width="1.5" stroke-linecap="round" stroke-linejoin="round"/>
<path opacity="0.4" d="M13.1719 8.96353L13.1719 28.9635" stroke="#FF1A51" stroke-width="1.5" stroke-linecap="round" stroke-linejoin="round" stroke-dasharray="5 5"/>
</svg>
