<svg width="25" height="24" viewBox="0 0 25 24" fill="none" xmlns="http://www.w3.org/2000/svg">
<path d="M23.25 17.5C23.25 17.91 22.91 18.25 22.5 18.25H15.5V18.5C15.5 20 14.6 20.5 13.5 20.5H7.5C6.4 20.5 5.5 20 5.5 18.5V18.25H2.5C2.09 18.25 1.75 17.91 1.75 17.5C1.75 17.09 2.09 16.75 2.5 16.75H5.5V16.5C5.5 15 6.4 14.5 7.5 14.5H13.5C14.6 14.5 15.5 15 15.5 16.5V16.75H22.5C22.91 16.75 23.25 17.09 23.25 17.5Z" fill="#ABC5FF"/>
<path d="M23.25 6.5C23.25 6.91 22.91 7.25 22.5 7.25H19.5V7.5C19.5 9 18.6 9.5 17.5 9.5H11.5C10.4 9.5 9.5 9 9.5 7.5V7.25H2.5C2.09 7.25 1.75 6.91 1.75 6.5C1.75 6.09 2.09 5.75 2.5 5.75H9.5V5.5C9.5 4 10.4 3.5 11.5 3.5H17.5C18.6 3.5 19.5 4 19.5 5.5V5.75H22.5C22.91 5.75 23.25 6.09 23.25 6.5Z" fill="#ABC5FF"/>
</svg>
