<svg width="25" height="24" viewBox="0 0 25 24" fill="none" xmlns="http://www.w3.org/2000/svg">
<path d="M17.5 4H7.5C4.5 4 2.5 5.5 2.5 9V12.56C2.5 12.93 2.88 13.16 3.21 13.01C4.19 12.56 5.32 12.39 6.51 12.6C9.14 13.07 11.07 15.51 11 18.18C10.99 18.6 10.93 19.01 10.82 19.41C10.74 19.72 10.99 20.01 11.31 20.01H17.5C20.5 20.01 22.5 18.51 22.5 15.01V9C22.5 5.5 20.5 4 17.5 4ZM12.5 14.5C11.12 14.5 10 13.38 10 12C10 10.62 11.12 9.5 12.5 9.5C13.88 9.5 15 10.62 15 12C15 13.38 13.88 14.5 12.5 14.5ZM19.75 14C19.75 14.41 19.41 14.75 19 14.75C18.59 14.75 18.25 14.41 18.25 14V10C18.25 9.59 18.59 9.25 19 9.25C19.41 9.25 19.75 9.59 19.75 10V14Z" fill="#ABC5FF"/>
<path d="M5.5 14C4.25 14 3.12 14.59 2.39 15.49C1.83 16.18 1.5 17.05 1.5 18C1.5 20.21 3.3 22 5.5 22C7.24 22 8.73 20.89 9.27 19.33C9.42 18.92 9.5 18.47 9.5 18C9.5 15.8 7.71 14 5.5 14ZM7.86 19.74C7.84 19.8 7.8 19.86 7.76 19.9L7.04 20.61C6.95 20.71 6.83 20.75 6.7 20.75C6.57 20.75 6.44 20.71 6.35 20.61C6.19 20.46 6.17 20.22 6.27 20.04H4.26C3.62 20.04 3.1 19.52 3.1 18.87V18.77C3.1 18.49 3.32 18.28 3.59 18.28C3.86 18.28 4.08 18.49 4.08 18.77V18.87C4.08 18.98 4.16 19.07 4.27 19.07H6.28C6.18 18.88 6.2 18.65 6.36 18.49C6.55 18.3 6.86 18.3 7.04 18.49L7.76 19.21C7.8 19.25 7.84 19.31 7.87 19.37C7.91 19.48 7.91 19.62 7.86 19.74ZM7.9 17.23C7.9 17.51 7.68 17.72 7.41 17.72C7.14 17.72 6.92 17.51 6.92 17.23V17.13C6.92 17.02 6.84 16.93 6.73 16.93H4.73C4.83 17.12 4.81 17.35 4.65 17.51C4.56 17.6 4.44 17.65 4.3 17.65C4.18 17.65 4.05 17.6 3.96 17.51L3.24 16.79C3.2 16.75 3.16 16.69 3.13 16.63C3.09 16.51 3.09 16.38 3.13 16.26C3.16 16.21 3.19 16.14 3.24 16.1L3.96 15.39C4.15 15.19 4.46 15.19 4.64 15.39C4.8 15.54 4.82 15.78 4.72 15.96H6.73C7.37 15.96 7.89 16.48 7.89 17.13V17.23H7.9Z" fill="#ABC5FF"/>
</svg>
