<svg width="25" height="24" viewBox="0 0 25 24" fill="none" xmlns="http://www.w3.org/2000/svg">
<path d="M9.49987 14.22H4.41987C3.80987 14.22 3.24987 14.53 2.92987 15.05C2.60987 15.56 2.57987 16.17 2.83987 16.71C4.06987 19.23 6.28987 21.21 8.92987 22.14C9.10987 22.2 9.30987 22.24 9.49987 22.24C9.84987 22.24 10.1999 22.13 10.4999 21.92C10.9699 21.59 11.2499 21.05 11.2499 20.48L11.2599 15.98C11.2599 15.51 11.0799 15.07 10.7499 14.74C10.4099 14.41 9.96987 14.22 9.49987 14.22Z" fill="#ABC5FF"/>
<path d="M22.9799 9.6C21.8599 4.68 17.5499 1.25 12.4999 1.25C7.44993 1.25 3.13993 4.68 2.01993 9.6C1.89993 10.12 2.01993 10.65 2.35993 11.07C2.69993 11.49 3.19993 11.73 3.73993 11.73H21.2699C21.8099 11.73 22.3099 11.49 22.6499 11.07C22.9799 10.65 23.0999 10.11 22.9799 9.6Z" fill="#ABC5FF"/>
<path d="M20.56 14.27L15.5 14.26C15.03 14.26 14.59 14.44 14.26 14.77C13.93 15.1 13.75 15.54 13.75 16.01L13.76 20.49C13.76 21.06 14.04 21.6 14.51 21.93C14.81 22.14 15.16 22.25 15.51 22.25C15.7 22.25 15.89 22.22 16.07 22.15C18.69 21.23 20.91 19.26 22.14 16.77C22.4 16.24 22.37 15.62 22.06 15.12C21.73 14.58 21.17 14.27 20.56 14.27Z" fill="#ABC5FF"/>
</svg>
