<svg width="25" height="24" viewBox="0 0 25 24" fill="none" xmlns="http://www.w3.org/2000/svg">
<path d="M12.5002 14C7.49016 14 3.41016 17.36 3.41016 21.5C3.41016 21.78 3.63016 22 3.91016 22H21.0902C21.3702 22 21.5902 21.78 21.5902 21.5C21.5902 17.36 17.5102 14 12.5002 14Z" fill="white"/>
<path d="M12.5 2C11.32 2 10.24 2.41 9.38 3.1C8.23 4.01 7.5 5.42 7.5 7C7.5 7.94 7.76 8.82 8.23 9.57C9.09 11.02 10.67 12 12.5 12C13.76 12 14.91 11.54 15.79 10.75C16.18 10.42 16.52 10.02 16.78 9.57C17.24 8.82 17.5 7.94 17.5 7C17.5 4.24 15.26 2 12.5 2ZM15.09 6.46L12.42 8.92C12.24 9.09 12.01 9.17 11.78 9.17C11.54 9.17 11.3 9.08 11.12 8.9L9.89 7.66C9.52 7.29 9.52 6.7 9.89 6.33C10.26 5.96 10.85 5.96 11.22 6.33L11.81 6.92L13.82 5.07C14.2 4.72 14.79 4.74 15.14 5.12C15.49 5.51 15.47 6.11 15.09 6.46Z" fill="white"/>
</svg>
