<svg width="24" height="25" viewBox="0 0 24 25" fill="none" xmlns="http://www.w3.org/2000/svg">
<path d="M10.75 5.13998L6.31997 2.94998C3.92997 1.77998 1.96997 2.96998 1.96997 5.58998V20.43C1.96997 21.57 2.91997 22.5 4.07997 22.5H11.5C12.05 22.5 12.5 22.05 12.5 21.5V7.90998C12.5 6.85998 11.71 5.60998 10.75 5.13998ZM8.96997 14.25H5.49997C5.08997 14.25 4.74997 13.91 4.74997 13.5C4.74997 13.09 5.08997 12.75 5.49997 12.75H8.96997C9.37997 12.75 9.71997 13.09 9.71997 13.5C9.71997 13.91 9.38997 14.25 8.96997 14.25ZM8.96997 10.25H5.49997C5.08997 10.25 4.74997 9.90998 4.74997 9.49998C4.74997 9.08998 5.08997 8.74998 5.49997 8.74998H8.96997C9.37997 8.74998 9.71997 9.08998 9.71997 9.49998C9.71997 9.90998 9.38997 10.25 8.96997 10.25Z" fill="#ABC5FF"/>
<path d="M22 18.54V20C22 21.38 20.88 22.5 19.5 22.5H14.97C14.43 22.5 14 22.07 14 21.53V19.37C15.07 19.5 16.2 19.19 17.01 18.54C17.69 19.09 18.56 19.42 19.51 19.42C20.44 19.42 21.31 19.09 22 18.54Z" fill="#ABC5FF"/>
<path d="M22 15.55V15.56C21.92 16.87 20.85 17.92 19.51 17.92C18.12 17.92 17.01 16.79 17.01 15.42C17.01 16.95 15.6 18.18 14 17.87V12.5C14 11.86 14.59 11.38 15.22 11.52L17.01 11.92L17.49 12.03L19.53 12.49C20.02 12.59 20.47 12.76 20.86 13.01C20.86 13.02 20.87 13.02 20.87 13.02C20.97 13.09 21.07 13.17 21.16 13.26C21.62 13.72 21.92 14.39 21.99 15.37C21.99 15.43 22 15.49 22 15.55Z" fill="#ABC5FF"/>
</svg>
