<svg width="24" height="25" viewBox="0 0 24 25" fill="none" xmlns="http://www.w3.org/2000/svg">
<path d="M18.75 14.4H16.9038C16.7057 14.4 16.5121 14.4588 16.3476 14.569L14.09 16.08C13.73 16.32 13.31 16.43 12.9 16.43C12.55 16.43 12.2 16.35 11.88 16.17C11.3982 15.9153 11.0443 15.4475 10.8705 14.923C10.7313 14.5029 10.4537 14.1136 10.0537 13.9244C9.59444 13.7073 9.18043 13.4204 8.83 13.07C7.97 12.21 7.5 11 7.5 9.65V5.75V5.5C7.5 4.94772 7.05228 4.5 6.5 4.5C3.8 4.5 2 5.85 2 9V14.4C2 17.55 3.8 18.9 6.5 18.9H10.25V21.75H7.4C6.99 21.75 6.65 22.09 6.65 22.5C6.65 22.91 6.99 23.25 7.4 23.25H14.6C15.01 23.25 15.35 22.91 15.35 22.5C15.35 22.09 15.01 21.75 14.6 21.75H11.75V18.9H15.5C17.8954 18.9 19.5824 17.8374 19.9326 15.398C20.011 14.8513 19.5523 14.4 19 14.4H18.75Z" fill="#ABC5FF"/>
<path d="M18.75 2.5H12.25C10.76 2.5 9.64 3.26 9.2 4.5C9.07 4.88 9 5.3 9 5.75V9.65C9 10.62 9.32 11.44 9.89 12.01C10.46 12.58 11.28 12.9 12.25 12.9V14.29C12.25 14.8 12.83 15.11 13.26 14.83L16.15 12.9H18.75C19.2 12.9 19.62 12.83 20 12.7C21.24 12.26 22 11.14 22 9.65V5.75C22 3.8 20.7 2.5 18.75 2.5ZM12.62 8.5C12.2 8.5 11.87 8.16 11.87 7.75C11.87 7.34 12.2 7 12.62 7C13.04 7 13.37 7.34 13.37 7.75C13.37 8.16 13.04 8.5 12.62 8.5ZM15.44 8.5C15.02 8.5 14.69 8.16 14.69 7.75C14.69 7.34 15.03 7 15.44 7C15.85 7 16.19 7.34 16.19 7.75C16.19 8.16 15.85 8.5 15.44 8.5ZM18.25 8.5C17.83 8.5 17.5 8.16 17.5 7.75C17.5 7.34 17.84 7 18.25 7C18.66 7 19 7.34 19 7.75C19 8.16 18.66 8.5 18.25 8.5Z" fill="#ABC5FF"/>
<path d="M22 5.75V9.65C22 11.14 21.24 12.26 20 12.7C19.62 12.83 19.2 12.9 18.75 12.9H16.15L13.26 14.83C12.83 15.11 12.25 14.8 12.25 14.29V12.9C11.28 12.9 10.46 12.58 9.89 12.01C9.32 11.44 9 10.62 9 9.65V5.75C9 5.3 9.07 4.88 9.2 4.5C9.64 3.26 10.76 2.5 12.25 2.5H18.75C20.7 2.5 22 3.8 22 5.75Z" fill="#ABC5FF"/>
</svg>
