<svg width="24" height="25" viewBox="0 0 24 25" fill="none" xmlns="http://www.w3.org/2000/svg">
<path d="M3.23 1.5H11.36C12.04 1.5 12.59 2.06 12.59 2.75V4.12C12.59 4.62 12.28 5.24 11.97 5.55L9.33 7.93C8.96 8.24 8.72 8.86 8.72 9.36V12.04C8.72 12.41 8.47 12.91 8.17 13.1L7.3 13.67C6.5 14.17 5.39 13.61 5.39 12.61V9.3C5.39 8.86 5.14 8.3 4.9 7.99L2.56 5.49C2.25 5.18 2 4.62 2 4.25V2.81C2 2.06 2.55 1.5 3.23 1.5Z" fill="#ABC5FF"/>
<path d="M17 2.5H14.6C14.32 2.5 14.1 2.72 14.1 3C14.1 3.48 14.1 4.12 14.1 4.12C14.1 5.11 13.57 6.08 13.05 6.61L10.33 9.04C10.3 9.11 10.25 9.21 10.22 9.29V12.04C10.22 12.95 9.68 13.94 8.94 14.39L8.12 14.92C7.66 15.21 7.15 15.35 6.64 15.35C6.18 15.35 5.72 15.23 5.3 15C4.78254 14.7134 4.39183 14.281 4.1531 13.7736C4.03113 13.5143 4 13.2245 4 12.938V10.71C4 10.58 3.95 10.45 3.85 10.36L2.85 9.36C2.54 9.04 2 9.26 2 9.71V17.5C2 20.26 4.24 22.5 7 22.5H17C19.76 22.5 22 20.26 22 17.5V7.5C22 4.74 19.76 2.5 17 2.5ZM18 18.25H11C10.59 18.25 10.25 17.91 10.25 17.5C10.25 17.09 10.59 16.75 11 16.75H18C18.41 16.75 18.75 17.09 18.75 17.5C18.75 17.91 18.41 18.25 18 18.25ZM18 14.25H13C12.59 14.25 12.25 13.91 12.25 13.5C12.25 13.09 12.59 12.75 13 12.75H18C18.41 12.75 18.75 13.09 18.75 13.5C18.75 13.91 18.41 14.25 18 14.25Z" fill="#ABC5FF"/>
</svg>
