<svg width="24" height="25" viewBox="0 0 24 25" fill="none" xmlns="http://www.w3.org/2000/svg">
<path d="M19.17 7.14002C18.74 4.97002 17.13 4.02002 14.89 4.02002H6.10996C3.46996 4.02002 1.70996 5.34002 1.70996 8.42002V13.57C1.70996 15.79 2.61996 17.09 4.11996 17.65C4.33996 17.73 4.57996 17.8 4.82996 17.84C5.22996 17.93 5.65996 17.97 6.10996 17.97H14.9C17.54 17.97 19.3 16.65 19.3 13.57V8.42002C19.3 7.95002 19.26 7.53002 19.17 7.14002ZM5.52996 12.5C5.52996 12.91 5.18996 13.25 4.77996 13.25C4.36996 13.25 4.02996 12.91 4.02996 12.5V9.50002C4.02996 9.09002 4.36996 8.75002 4.77996 8.75002C5.18996 8.75002 5.52996 9.09002 5.52996 9.50002V12.5ZM10.5 13.64C9.03996 13.64 7.85996 12.46 7.85996 11C7.85996 9.54002 9.03996 8.36002 10.5 8.36002C11.96 8.36002 13.14 9.54002 13.14 11C13.14 12.46 11.96 13.64 10.5 13.64ZM16.96 12.5C16.96 12.91 16.62 13.25 16.21 13.25C15.8 13.25 15.46 12.91 15.46 12.5V9.50002C15.46 9.09002 15.8 8.75002 16.21 8.75002C16.62 8.75002 16.96 9.09002 16.96 9.50002V12.5Z" fill="#ABC5FF"/>
<path d="M22.3 11.42V16.57C22.3 19.65 20.54 20.98 17.89 20.98H9.11001C8.36001 20.98 7.69001 20.87 7.11001 20.65C6.64001 20.48 6.23001 20.23 5.90001 19.91C5.72001 19.74 5.86001 19.47 6.11001 19.47H14.89C18.59 19.47 20.79 17.27 20.79 13.58V8.41997C20.79 8.17997 21.06 8.02997 21.23 8.20997C21.91 8.92997 22.3 9.97997 22.3 11.42Z" fill="#ABC5FF"/>
</svg>
