<svg width="24" height="25" viewBox="0 0 24 25" fill="none" xmlns="http://www.w3.org/2000/svg">
<path d="M18.5 4.61001L13.51 2.74001C12.68 2.43001 11.32 2.43001 10.49 2.74001L5.50003 4.61001C4.35003 5.04001 3.41003 6.40001 3.41003 7.62001V15.05C3.41003 16.23 4.19003 17.78 5.14003 18.49L9.44003 21.7C10.85 22.76 13.17 22.76 14.58 21.7L18.88 18.49C19.83 17.78 20.61 16.23 20.61 15.05V7.62001C20.59 6.40001 19.65 5.04001 18.5 4.61001ZM11.93 7.53001C13.11 7.53001 14.07 8.49001 14.07 9.67001C14.07 10.83 13.16 11.76 12.01 11.8H11.99H11.97C11.95 11.8 11.93 11.8 11.91 11.8C10.71 11.76 9.81003 10.83 9.81003 9.67001C9.80003 8.49001 10.76 7.53001 11.93 7.53001ZM14.19 16.86C13.58 17.26 12.79 17.47 12 17.47C11.21 17.47 10.41 17.27 9.81003 16.86C9.24003 16.48 8.93003 15.96 8.92003 15.39C8.92003 14.83 9.24003 14.29 9.81003 13.91C11.02 13.11 12.99 13.11 14.2 13.91C14.77 14.29 15.09 14.81 15.09 15.38C15.08 15.94 14.76 16.48 14.19 16.86Z" fill="#ABC5FF"/>
</svg>
